<svg width="337" height="572" viewBox="0 0 337 572" fill="none" xmlns="http://www.w3.org/2000/svg">
<path fill-rule="evenodd" clip-rule="evenodd" d="M0 0H337V571L330.322 564.322L322.645 572H322L314.322 564.322L306.645 572H305L297.322 564.322L289.645 572H288L280.322 564.322L272.645 572H270L262.322 564.322L254.645 572H254L246.322 564.322L238.645 572H238L230.322 564.322L222.645 572H221L213.322 564.322L205.645 572H204L196.322 564.322L188.645 572H186L178.322 564.322L170.645 572H169L161.322 564.322L153.645 572H153L145.322 564.322L137.645 572H136L128.322 564.322L120.645 572H119L111.322 564.322L103.645 572H101L93.3223 564.322L85.6447 572H84L76.3223 564.322L68.6447 572H68L60.3223 564.322L52.6447 572H51L43.3223 564.322L35.6447 572H34L26.3223 564.322L18.6447 572H16L8.32233 564.322L0.644659 572H0V0Z" fill="white"/>
</svg>
