<svg width="75" height="131" viewBox="0 0 75 131" fill="none" xmlns="http://www.w3.org/2000/svg">
<path d="M142.226 63.0411L121.067 26.0126V5.53313C121.067 2.50498 118.612 0.0498047 115.583 0.0498047H27.8503C24.8221 0.0498047 22.367 2.50498 22.367 5.53313V26.0126L1.15658 63.108C0.677322 63.9407 0.428324 64.8885 0.433678 65.8497V175.516C0.433678 178.544 2.88886 180.999 5.917 180.999H137.517C140.545 180.999 143 178.544 143 175.516V65.8497C143.003 64.8617 142.735 63.8898 142.226 63.0411ZM128.068 60.3664H103.099L115.583 38.5214L128.068 60.3664ZM33.3336 11.0165H110.1V21.9831H33.3336V11.0165ZM31.031 32.9497H106.151L90.4694 60.3664H15.3495L31.031 32.9497ZM88.1668 170.033H11.4003V71.333H88.1668V170.033ZM132.033 170.033H99.1335V71.333H132.033V170.033Z" fill="#C40044"/>
</svg>
