<svg width="110" height="279" viewBox="0 0 110 279" fill="none" xmlns="http://www.w3.org/2000/svg">
<path d="M43.9183 73.733C44.2878 72.97 44.4752 72.1319 44.4672 71.2832V32.8999H66.4005V71.2832C66.3924 72.1319 66.5798 72.97 66.9493 73.733L99.8493 139.533L109.665 134.633L77.3671 69.99V5.48332C77.3671 2.45518 74.9119 0 71.8838 0H38.9838C35.9557 0 33.5005 2.45518 33.5005 5.48332V69.99L1.17623 134.633C0.796036 135.394 0.600586 136.232 0.600586 137.083V323.516C0.600586 326.544 3.05576 328.999 6.08391 328.999H44.4672V318.033H11.5672V138.376L43.9183 73.733ZM66.4005 10.9666V21.9333H44.4672V10.9666H66.4005Z" fill="#C40044"/>
</svg>
