<svg width="146" height="214" viewBox="0 0 146 214" fill="none" xmlns="http://www.w3.org/2000/svg">
<path d="M115.151 44.6672C115.151 33.2883 110.709 22.3591 102.776 14.201C114.904 9.25053 128.819 11.9868 138.171 21.165L145.847 13.3362C131.788 -0.473807 110.23 -3.16728 93.2068 6.75518C79.6537 -1.12174 62.9226 -1.15387 49.3402 6.67218C35.7577 14.5009 27.3962 28.991 27.4176 44.6672V66.6005H5.4843C2.45616 66.6005 0.000976562 69.0557 0.000976562 72.0838V258.517C0.000976562 261.545 2.45616 264 5.4843 264H120.634V253.034H54.8342V77.5672H71.2842V99.5005H82.2508V77.5672H120.634V66.6005H115.151V44.6672ZM31.9799 222.573C30.9036 221.135 29.2141 220.289 27.4176 220.289C25.6211 220.289 23.9316 221.135 22.8553 222.573L10.9676 240.423V90.1777L22.8553 108.009C23.8727 109.535 25.5836 110.451 27.4176 110.451C29.2516 110.451 30.9625 109.535 31.9799 108.009L43.8676 90.1777V240.423L31.9799 222.573ZM39.1071 253.034H15.728L27.4176 235.486L39.1071 253.034ZM27.4176 95.1149L15.728 77.5672H39.1071L27.4176 95.1149ZM38.3842 66.6005V44.6672C38.3709 33.7166 43.814 23.4783 52.9011 17.3631C61.9856 11.2505 73.5198 10.0645 83.6591 14.201C75.726 22.3591 71.2842 33.2883 71.2842 44.6672V66.6005H38.3842ZM82.2508 44.6672C82.2562 35.3284 86.2455 26.4341 93.2175 20.2172C100.189 26.4341 104.179 35.3284 104.184 44.6672V66.6005H82.2508V44.6672Z" fill="#C40044"/>
</svg>
